<svg id="Слой_1" data-name="Слой 1" xmlns="http://www.w3.org/2000/svg" viewBox="0 0 147.96 120.07"><defs><style>.cls-1{fill:#1d1d1b;}</style></defs><path class="cls-1" d="M193,337.32v16.9A32.94,32.94,0,0,1,193,407v16.9a47.56,47.56,0,0,0,0-86.61Z" transform="translate(-72.88 -308.13)"/><path class="cls-1" d="M193,428.2v-4.27a47.41,47.41,0,0,1-19.69,4.27Z" transform="translate(-72.88 -308.13)"/><path class="cls-1" d="M125.69,380.63A47.56,47.56,0,0,1,193,337.32V308.13H72.88V428.2H173.26A47.57,47.57,0,0,1,125.69,380.63Z" transform="translate(-72.88 -308.13)"/><path class="cls-1" d="M140.33,380.63A32.94,32.94,0,0,0,193,407V354.22a32.94,32.94,0,0,0-52.62,26.41Z" transform="translate(-72.88 -308.13)"/></svg>